# xmcd
# 
# Track frame offsets:
#     150
#     22126
#     45216
# 
# Disc length: 827
# 
# Revision: 1
# Processed by: cddbd v1.5.2PL0 Copyright (c) Steve Scherf et al.
# Submitted via: fre:ac v1.0.17
# 
DISCID=1a033903
DTITLE=ムック - ココロノナイマチ
DYEAR=2005
DGENRE=Rock
TTITLE0=ココロノナイマチ
TTITLE1=月の砂丘
TTITLE2=月の砂丘 [Piano ver.]
EXTD=
EXTT0=
EXTT1=
EXTT2=
PLAYORDER=
